<svg xmlns="http://www.w3.org/2000/svg" xmlns:xlink="http://www.w3.org/1999/xlink" width="1920" zoomAndPan="magnify" viewBox="0 0 1440 809.999993" height="1080" preserveAspectRatio="xMidYMid meet" version="1.0"><defs><filter x="0%" y="0%" width="100%" height="100%" id="a54cd901b5"><feColorMatrix values="0 0 0 0 1 0 0 0 0 1 0 0 0 0 1 0 0 0 1 0" color-interpolation-filters="sRGB"/></filter><mask id="4d7d317bdf"><g filter="url(#a54cd901b5)"><rect x="-144" width="1728" fill="#000000" y="-80.999999" height="971.999992" fill-opacity="0.24"/></g></mask><clipPath id="811894748b"><path d="M 296 269 L 326 269 L 326 329 L 296 329 Z M 296 269 " clip-rule="nonzero"/></clipPath><clipPath id="ffb9318393"><path d="M 0.441406 185 L 68 185 L 68 253 L 0.441406 253 Z M 0.441406 185 " clip-rule="nonzero"/></clipPath><clipPath id="c9f5e6f68f"><path d="M 185 0.75 L 253 0.75 L 253 69 L 185 69 Z M 185 0.75 " clip-rule="nonzero"/></clipPath><clipPath id="4929de96a4"><path d="M 369 0.75 L 437 0.75 L 437 69 L 369 69 Z M 369 0.75 " clip-rule="nonzero"/></clipPath><clipPath id="2a9cd4aab2"><path d="M 0.441406 0.75 L 68 0.75 L 68 69 L 0.441406 69 Z M 0.441406 0.75 " clip-rule="nonzero"/></clipPath><clipPath id="33d948066d"><rect x="0" width="437" y="0" height="329"/></clipPath><clipPath id="c3a0d81afe"><path d="M 10.15625 660 L 178 660 L 178 810 L 10.15625 810 Z M 10.15625 660 " clip-rule="nonzero"/></clipPath><clipPath id="eab4624f55"><path d="M 33 708 L 201.894531 708 L 201.894531 810 L 33 810 Z M 33 708 " clip-rule="nonzero"/></clipPath><clipPath id="f89792d543"><path d="M 47 468.5625 L 216 468.5625 L 216 663 L 47 663 Z M 47 468.5625 " clip-rule="nonzero"/></clipPath><clipPath id="3c5e3896a1"><path d="M 400.746094 659 L 439.15625 659 L 439.15625 704 L 400.746094 704 Z M 400.746094 659 " clip-rule="nonzero"/></clipPath><mask id="97fab29a73"><g filter="url(#a54cd901b5)"><rect x="-144" width="1728" fill="#000000" y="-80.999999" height="971.999992" fill-opacity="0.24"/></g></mask><clipPath id="1f35c93d49"><path d="M 185 368 L 253 368 L 253 436.5 L 185 436.5 Z M 185 368 " clip-rule="nonzero"/></clipPath><clipPath id="bb91378dec"><path d="M 0.441406 184 L 68 184 L 68 252 L 0.441406 252 Z M 0.441406 184 " clip-rule="nonzero"/></clipPath><clipPath id="f73e364ea7"><path d="M 369 368 L 437 368 L 437 436.5 L 369 436.5 Z M 369 368 " clip-rule="nonzero"/></clipPath><clipPath id="d7d895418b"><path d="M 0.441406 368 L 68 368 L 68 436.5 L 0.441406 436.5 Z M 0.441406 368 " clip-rule="nonzero"/></clipPath><clipPath id="e123857021"><path d="M 0.441406 0 L 68 0 L 68 68 L 0.441406 68 Z M 0.441406 0 " clip-rule="nonzero"/></clipPath><clipPath id="96f1c0ae4b"><rect x="0" width="437" y="0" height="437"/></clipPath><clipPath id="2e8d9989eb"><path d="M 209 285 L 422 285 L 422 469.117188 L 209 469.117188 Z M 209 285 " clip-rule="nonzero"/></clipPath><clipPath id="7e7b7722c5"><path d="M 262 260 L 473.886719 260 L 473.886719 444 L 262 444 Z M 262 260 " clip-rule="nonzero"/></clipPath><clipPath id="df55f71611"><path d="M 208 0.367188 L 257.570312 0.367188 L 257.570312 42.363281 L 208 42.363281 Z M 208 0.367188 " clip-rule="nonzero"/></clipPath><mask id="25b1ce41b9"><g filter="url(#a54cd901b5)"><rect x="-144" width="1728" fill="#000000" y="-80.999999" height="971.999992" fill-opacity="0.24"/></g></mask><clipPath id="2fdd9e60db"><path d="M 111 85 L 142 85 L 142 136 L 111 136 Z M 111 85 " clip-rule="nonzero"/></clipPath><clipPath id="c0e667a521"><path d="M 309 112 L 313 112 L 313 136 L 309 136 Z M 309 112 " clip-rule="nonzero"/></clipPath><clipPath id="4c2ea4a7f7"><path d="M 269 112 L 353 112 L 353 136 L 269 136 Z M 269 112 " clip-rule="nonzero"/></clipPath><clipPath id="6cde71d583"><path d="M 184 1.171875 L 253 1.171875 L 253 69 L 184 69 Z M 184 1.171875 " clip-rule="nonzero"/></clipPath><clipPath id="ed005efbc8"><path d="M 369 1.171875 L 437 1.171875 L 437 69 L 369 69 Z M 369 1.171875 " clip-rule="nonzero"/></clipPath><clipPath id="d4ad667426"><path d="M 0.199219 1.171875 L 68 1.171875 L 68 69 L 0.199219 69 Z M 0.199219 1.171875 " clip-rule="nonzero"/></clipPath><clipPath id="40d8121aef"><rect x="0" width="437" y="0" height="136"/></clipPath><clipPath id="f10658c9f2"><path d="M 623.890625 563.917969 L 943.066406 563.917969 L 943.066406 810 L 623.890625 810 Z M 623.890625 563.917969 " clip-rule="nonzero"/></clipPath><clipPath id="7f6ee81415"><path d="M 783.480469 563.917969 C 695.339844 563.917969 623.890625 635.367188 623.890625 723.503906 C 623.890625 811.644531 695.339844 883.09375 783.480469 883.09375 C 871.617188 883.09375 943.066406 811.644531 943.066406 723.503906 C 943.066406 635.367188 871.617188 563.917969 783.480469 563.917969 Z M 783.480469 563.917969 " clip-rule="nonzero"/></clipPath></defs><rect x="-144" width="1728" fill="#ffffff" y="-80.999999" height="971.999992" fill-opacity="1"/><rect x="-144" width="1728" fill="#ffffff" y="-80.999999" height="971.999992" fill-opacity="1"/><g mask="url(#4d7d317bdf)"><g transform="matrix(1, 0, 0, 1, 1, 481)"><g clip-path="url(#33d948066d)"><path fill="#a5dceb" d="M 324.246094 312.777344 L 297.753906 312.777344 C 296.835938 312.777344 296.09375 312.035156 296.09375 311.117188 C 296.09375 310.203125 296.835938 309.457031 297.753906 309.457031 L 324.246094 309.457031 C 325.164062 309.457031 325.90625 310.203125 325.90625 311.117188 C 325.90625 312.035156 325.164062 312.777344 324.246094 312.777344 " fill-opacity="1" fill-rule="nonzero"/><g clip-path="url(#811894748b)"><path fill="#a5dceb" d="M 311 273.042969 C 304.613281 273.042969 299.414062 278.242188 299.414062 284.628906 L 299.414062 337.609375 C 299.414062 343.996094 304.613281 349.195312 311 349.195312 C 317.390625 349.195312 322.585938 343.996094 322.585938 337.609375 L 322.585938 284.628906 C 322.585938 278.242188 317.390625 273.042969 311 273.042969 Z M 311 352.515625 C 302.78125 352.515625 296.09375 345.828125 296.09375 337.609375 L 296.09375 284.628906 C 296.09375 276.410156 302.78125 269.722656 311 269.722656 C 319.21875 269.722656 325.90625 276.410156 325.90625 284.628906 L 325.90625 337.609375 C 325.90625 345.828125 319.21875 352.515625 311 352.515625 " fill-opacity="1" fill-rule="nonzero"/></g><path fill="#a5dceb" d="M 319.320312 296.359375 C 318.402344 296.359375 317.660156 295.617188 317.660156 294.699219 L 317.660156 285.339844 C 317.660156 281.242188 314.324219 277.90625 310.226562 277.90625 C 309.308594 277.90625 308.566406 277.164062 308.566406 276.246094 C 308.566406 275.332031 309.308594 274.585938 310.226562 274.585938 C 316.15625 274.585938 320.980469 279.410156 320.980469 285.339844 L 320.980469 294.699219 C 320.980469 295.617188 320.234375 296.359375 319.320312 296.359375 " fill-opacity="1" fill-rule="nonzero"/><path fill="#a5dceb" d="M 318.910156 327.238281 C 317.992188 327.238281 317.25 326.496094 317.25 325.578125 L 317.25 311.976562 C 317.25 311.058594 317.992188 310.316406 318.910156 310.316406 C 319.828125 310.316406 320.570312 311.058594 320.570312 311.976562 L 320.570312 325.578125 C 320.570312 326.496094 319.828125 327.238281 318.910156 327.238281 " fill-opacity="1" fill-rule="nonzero"/><path fill="#a5dceb" d="M 126.523438 326.023438 C 125.605469 326.023438 124.863281 325.28125 124.863281 324.363281 L 124.863281 297.871094 C 124.863281 296.953125 125.605469 296.210938 126.523438 296.210938 C 127.4375 296.210938 128.183594 296.953125 128.183594 297.871094 L 128.183594 324.363281 C 128.183594 325.28125 127.4375 326.023438 126.523438 326.023438 " fill-opacity="1" fill-rule="nonzero"/><path fill="#a5dceb" d="M 100.03125 299.53125 C 93.644531 299.53125 88.445312 304.730469 88.445312 311.117188 C 88.445312 317.507812 93.644531 322.703125 100.03125 322.703125 L 153.011719 322.703125 C 159.398438 322.703125 164.597656 317.507812 164.597656 311.117188 C 164.597656 304.730469 159.398438 299.53125 153.011719 299.53125 Z M 153.011719 326.023438 L 100.03125 326.023438 C 91.8125 326.023438 85.125 319.335938 85.125 311.117188 C 85.125 302.898438 91.8125 296.210938 100.03125 296.210938 L 153.011719 296.210938 C 161.230469 296.210938 167.917969 302.898438 167.917969 311.117188 C 167.917969 319.335938 161.230469 326.023438 153.011719 326.023438 " fill-opacity="1" fill-rule="nonzero"/><path fill="#a5dceb" d="M 152.300781 321.09375 L 142.941406 321.09375 C 142.023438 321.09375 141.28125 320.351562 141.28125 319.433594 C 141.28125 318.519531 142.023438 317.773438 142.941406 317.773438 L 152.300781 317.773438 C 156.398438 317.773438 159.734375 314.441406 159.734375 310.34375 C 159.734375 309.425781 160.476562 308.683594 161.394531 308.683594 C 162.308594 308.683594 163.054688 309.425781 163.054688 310.34375 C 163.054688 316.273438 158.230469 321.09375 152.300781 321.09375 " fill-opacity="1" fill-rule="nonzero"/><path fill="#a5dceb" d="M 125.664062 320.6875 L 112.0625 320.6875 C 111.144531 320.6875 110.402344 319.945312 110.402344 319.027344 C 110.402344 318.109375 111.144531 317.367188 112.0625 317.367188 L 125.664062 317.367188 C 126.578125 317.367188 127.324219 318.109375 127.324219 319.027344 C 127.324219 319.945312 126.578125 320.6875 125.664062 320.6875 " fill-opacity="1" fill-rule="nonzero"/><path fill="#a5dceb" d="M 139.769531 128.300781 L 113.277344 128.300781 C 112.359375 128.300781 111.617188 127.554688 111.617188 126.640625 C 111.617188 125.722656 112.359375 124.980469 113.277344 124.980469 L 139.769531 124.980469 C 140.6875 124.980469 141.429688 125.722656 141.429688 126.640625 C 141.429688 127.554688 140.6875 128.300781 139.769531 128.300781 " fill-opacity="1" fill-rule="nonzero"/><path fill="#a5dceb" d="M 126.523438 88.5625 C 120.132812 88.5625 114.9375 93.761719 114.9375 100.148438 L 114.9375 153.128906 C 114.9375 159.515625 120.132812 164.714844 126.523438 164.714844 C 132.910156 164.714844 138.109375 159.515625 138.109375 153.128906 L 138.109375 100.148438 C 138.109375 93.761719 132.910156 88.5625 126.523438 88.5625 Z M 126.523438 168.035156 C 118.304688 168.035156 111.617188 161.347656 111.617188 153.128906 L 111.617188 100.148438 C 111.617188 91.929688 118.304688 85.242188 126.523438 85.242188 C 134.742188 85.242188 141.429688 91.929688 141.429688 100.148438 L 141.429688 153.128906 C 141.429688 161.347656 134.742188 168.035156 126.523438 168.035156 " fill-opacity="1" fill-rule="nonzero"/><path fill="#a5dceb" d="M 127.296875 163.171875 C 121.367188 163.171875 116.542969 158.347656 116.542969 152.417969 L 116.542969 143.058594 C 116.542969 142.140625 117.289062 141.398438 118.203125 141.398438 C 119.121094 141.398438 119.863281 142.140625 119.863281 143.058594 L 119.863281 152.417969 C 119.863281 156.515625 123.199219 159.847656 127.296875 159.847656 C 128.214844 159.847656 128.957031 160.59375 128.957031 161.511719 C 128.957031 162.425781 128.214844 163.171875 127.296875 163.171875 " fill-opacity="1" fill-rule="nonzero"/><path fill="#a5dceb" d="M 118.613281 127.441406 C 117.695312 127.441406 116.953125 126.695312 116.953125 125.78125 L 116.953125 112.179688 C 116.953125 111.261719 117.695312 110.519531 118.613281 110.519531 C 119.53125 110.519531 120.273438 111.261719 120.273438 112.179688 L 120.273438 125.78125 C 120.273438 126.695312 119.53125 127.441406 118.613281 127.441406 " fill-opacity="1" fill-rule="nonzero"/><path fill="#a5dceb" d="M 311 141.546875 C 310.085938 141.546875 309.339844 140.804688 309.339844 139.886719 L 309.339844 113.390625 C 309.339844 112.472656 310.085938 111.730469 311 111.730469 C 311.917969 111.730469 312.660156 112.472656 312.660156 113.390625 L 312.660156 139.886719 C 312.660156 140.804688 311.917969 141.546875 311 141.546875 " fill-opacity="1" fill-rule="nonzero"/><path fill="#a5dceb" d="M 284.511719 115.054688 C 278.125 115.054688 272.925781 120.25 272.925781 126.640625 C 272.925781 133.027344 278.125 138.226562 284.511719 138.226562 L 337.492188 138.226562 C 343.878906 138.226562 349.078125 133.027344 349.078125 126.640625 C 349.078125 120.25 343.878906 115.054688 337.492188 115.054688 Z M 337.492188 141.546875 L 284.511719 141.546875 C 276.292969 141.546875 269.605469 134.859375 269.605469 126.640625 C 269.605469 118.417969 276.292969 111.730469 284.511719 111.730469 L 337.492188 111.730469 C 345.710938 111.730469 352.398438 118.417969 352.398438 126.640625 C 352.398438 134.859375 345.710938 141.546875 337.492188 141.546875 " fill-opacity="1" fill-rule="nonzero"/><path fill="#a5dceb" d="M 276.128906 129.074219 C 275.214844 129.074219 274.46875 128.332031 274.46875 127.414062 C 274.46875 121.484375 279.292969 116.660156 285.222656 116.660156 L 294.582031 116.660156 C 295.5 116.660156 296.242188 117.40625 296.242188 118.320312 C 296.242188 119.238281 295.5 119.980469 294.582031 119.980469 L 285.222656 119.980469 C 281.125 119.980469 277.789062 123.316406 277.789062 127.414062 C 277.789062 128.332031 277.046875 129.074219 276.128906 129.074219 " fill-opacity="1" fill-rule="nonzero"/><path fill="#a5dceb" d="M 325.460938 120.390625 L 311.859375 120.390625 C 310.945312 120.390625 310.199219 119.648438 310.199219 118.730469 C 310.199219 117.8125 310.945312 117.070312 311.859375 117.070312 L 325.460938 117.070312 C 326.378906 117.070312 327.121094 117.8125 327.121094 118.730469 C 327.121094 119.648438 326.378906 120.390625 325.460938 120.390625 " fill-opacity="1" fill-rule="nonzero"/><path fill="#a5dceb" d="M 393.875 229.90625 C 393.449219 229.90625 393.023438 229.742188 392.699219 229.417969 C 392.050781 228.769531 392.050781 227.71875 392.699219 227.070312 L 411.433594 208.335938 C 412.082031 207.6875 413.132812 207.6875 413.78125 208.335938 C 414.429688 208.984375 414.429688 210.035156 413.78125 210.683594 L 395.046875 229.417969 C 394.722656 229.742188 394.300781 229.90625 393.875 229.90625 " fill-opacity="1" fill-rule="nonzero"/><path fill="#a5dceb" d="M 384.511719 188.558594 C 381.414062 188.558594 378.507812 189.765625 376.316406 191.953125 C 371.796875 196.472656 371.796875 203.824219 376.316406 208.339844 L 413.777344 245.800781 C 415.964844 247.988281 418.875 249.195312 421.972656 249.195312 C 425.066406 249.195312 427.976562 247.988281 430.164062 245.800781 C 432.351562 243.613281 433.558594 240.703125 433.558594 237.609375 C 433.558594 234.515625 432.351562 231.605469 430.164062 229.417969 L 392.703125 191.953125 C 390.515625 189.765625 387.605469 188.558594 384.511719 188.558594 Z M 421.972656 252.515625 C 417.988281 252.515625 414.246094 250.964844 411.429688 248.148438 L 373.96875 210.6875 C 368.15625 204.875 368.15625 195.417969 373.96875 189.605469 C 376.785156 186.789062 380.527344 185.238281 384.511719 185.238281 C 388.492188 185.238281 392.234375 186.789062 395.050781 189.605469 L 432.511719 227.066406 C 435.328125 229.882812 436.878906 233.628906 436.878906 237.609375 C 436.878906 241.589844 435.328125 245.332031 432.511719 248.148438 C 429.699219 250.964844 425.953125 252.515625 421.972656 252.515625 " fill-opacity="1" fill-rule="nonzero"/><path fill="#a5dceb" d="M 397.511719 203.046875 C 397.085938 203.046875 396.664062 202.886719 396.339844 202.5625 L 389.71875 195.941406 C 388.316406 194.539062 386.449219 193.765625 384.464844 193.765625 C 382.480469 193.765625 380.613281 194.539062 379.210938 195.941406 C 378.5625 196.589844 377.507812 196.589844 376.863281 195.941406 C 376.214844 195.292969 376.214844 194.242188 376.863281 193.59375 C 378.890625 191.5625 381.589844 190.445312 384.464844 190.445312 C 387.335938 190.445312 390.039062 191.5625 392.066406 193.59375 L 398.6875 200.214844 C 399.335938 200.863281 399.335938 201.914062 398.6875 202.5625 C 398.363281 202.886719 397.9375 203.046875 397.511719 203.046875 " fill-opacity="1" fill-rule="nonzero"/><path fill="#a5dceb" d="M 24.917969 229.90625 C 24.492188 229.90625 24.066406 229.742188 23.742188 229.417969 C 23.09375 228.769531 23.09375 227.71875 23.742188 227.070312 L 42.476562 208.335938 C 43.125 207.6875 44.175781 207.6875 44.824219 208.335938 C 45.472656 208.984375 45.472656 210.035156 44.824219 210.683594 L 26.089844 229.417969 C 25.765625 229.742188 25.339844 229.90625 24.917969 229.90625 " fill-opacity="1" fill-rule="nonzero"/><g clip-path="url(#ffb9318393)"><path fill="#a5dceb" d="M 15.550781 188.558594 C 12.457031 188.558594 9.546875 189.765625 7.359375 191.953125 C 2.839844 196.472656 2.839844 203.824219 7.359375 208.339844 L 44.820312 245.800781 C 47.007812 247.988281 49.917969 249.195312 53.011719 249.195312 C 56.109375 249.195312 59.015625 247.988281 61.207031 245.800781 C 63.394531 243.613281 64.601562 240.703125 64.601562 237.609375 C 64.601562 234.515625 63.394531 231.605469 61.207031 229.417969 L 23.746094 191.953125 C 21.558594 189.765625 18.648438 188.558594 15.550781 188.558594 Z M 53.011719 252.515625 C 49.03125 252.515625 45.289062 250.964844 42.472656 248.148438 L 5.011719 210.6875 C -0.800781 204.875 -0.800781 195.417969 5.011719 189.605469 C 7.824219 186.789062 11.570312 185.238281 15.550781 185.238281 C 19.535156 185.238281 23.277344 186.789062 26.09375 189.605469 L 63.554688 227.066406 C 66.371094 229.882812 67.921875 233.628906 67.921875 237.609375 C 67.921875 241.589844 66.371094 245.332031 63.554688 248.148438 C 60.738281 250.964844 56.996094 252.515625 53.011719 252.515625 " fill-opacity="1" fill-rule="nonzero"/></g><path fill="#a5dceb" d="M 50.101562 225.171875 C 49.675781 225.171875 49.25 225.007812 48.925781 224.683594 L 39.308594 215.066406 C 38.660156 214.417969 38.660156 213.367188 39.308594 212.71875 C 39.957031 212.070312 41.007812 212.070312 41.65625 212.71875 L 51.273438 222.335938 C 51.921875 222.984375 51.921875 224.035156 51.273438 224.683594 C 50.949219 225.007812 50.527344 225.171875 50.101562 225.171875 " fill-opacity="1" fill-rule="nonzero"/><path fill="#a5dceb" d="M 209.394531 45.425781 C 208.96875 45.425781 208.542969 45.265625 208.21875 44.941406 C 207.570312 44.292969 207.570312 43.242188 208.21875 42.589844 L 226.957031 23.859375 C 227.601562 23.210938 228.65625 23.210938 229.304688 23.859375 C 229.953125 24.507812 229.953125 25.558594 229.304688 26.203125 L 210.566406 44.941406 C 210.242188 45.265625 209.820312 45.425781 209.394531 45.425781 " fill-opacity="1" fill-rule="nonzero"/><g clip-path="url(#c9f5e6f68f)"><path fill="#a5dceb" d="M 200.03125 4.082031 C 196.9375 4.082031 194.027344 5.289062 191.839844 7.476562 C 187.320312 11.992188 187.320312 19.34375 191.839844 23.863281 L 229.300781 61.324219 C 231.488281 63.511719 234.398438 64.71875 237.492188 64.71875 C 240.585938 64.71875 243.496094 63.511719 245.6875 61.324219 C 250.203125 56.804688 250.203125 49.453125 245.6875 44.9375 L 208.222656 7.476562 C 206.035156 5.289062 203.125 4.082031 200.03125 4.082031 Z M 237.492188 68.039062 C 233.511719 68.039062 229.765625 66.488281 226.949219 63.671875 L 189.488281 26.210938 C 183.675781 20.398438 183.675781 10.941406 189.488281 5.125 C 192.304688 2.3125 196.050781 0.761719 200.03125 0.761719 C 204.011719 0.761719 207.757812 2.3125 210.574219 5.125 L 248.035156 42.589844 C 253.847656 48.402344 253.847656 57.859375 248.035156 63.671875 C 245.21875 66.488281 241.472656 68.039062 237.492188 68.039062 " fill-opacity="1" fill-rule="nonzero"/></g><path fill="#a5dceb" d="M 234.578125 40.691406 C 234.152344 40.691406 233.730469 40.527344 233.40625 40.207031 L 223.789062 30.589844 C 223.140625 29.9375 223.140625 28.886719 223.789062 28.242188 C 224.4375 27.59375 225.488281 27.59375 226.136719 28.242188 L 235.753906 37.855469 C 236.402344 38.503906 236.402344 39.558594 235.753906 40.207031 C 235.429688 40.527344 235.003906 40.691406 234.578125 40.691406 " fill-opacity="1" fill-rule="nonzero"/><path fill="#a5dceb" d="M 228.128906 229.90625 C 227.703125 229.90625 227.28125 229.742188 226.957031 229.417969 L 208.21875 210.683594 C 207.570312 210.035156 207.570312 208.984375 208.21875 208.335938 C 208.867188 207.6875 209.921875 207.6875 210.566406 208.335938 L 229.304688 227.070312 C 229.953125 227.71875 229.953125 228.769531 229.304688 229.417969 C 228.980469 229.742188 228.554688 229.90625 228.128906 229.90625 " fill-opacity="1" fill-rule="nonzero"/><path fill="#a5dceb" d="M 237.492188 188.558594 C 234.398438 188.558594 231.488281 189.765625 229.300781 191.953125 L 191.839844 229.417969 C 189.648438 231.605469 188.445312 234.515625 188.445312 237.609375 C 188.445312 240.703125 189.648438 243.613281 191.839844 245.800781 C 194.027344 247.988281 196.9375 249.195312 200.03125 249.195312 C 203.125 249.195312 206.035156 247.988281 208.222656 245.800781 L 245.6875 208.339844 C 250.203125 203.824219 250.203125 196.472656 245.6875 191.953125 C 243.496094 189.765625 240.585938 188.558594 237.492188 188.558594 Z M 200.03125 252.515625 C 196.050781 252.515625 192.304688 250.964844 189.488281 248.148438 C 186.675781 245.332031 185.125 241.589844 185.125 237.609375 C 185.125 233.628906 186.675781 229.882812 189.488281 227.066406 L 226.949219 189.605469 C 229.765625 186.789062 233.511719 185.238281 237.492188 185.238281 C 241.472656 185.238281 245.21875 186.789062 248.035156 189.605469 C 253.847656 195.417969 253.847656 204.875 248.035156 210.6875 L 210.574219 248.148438 C 207.757812 250.964844 204.011719 252.515625 200.03125 252.515625 " fill-opacity="1" fill-rule="nonzero"/><path fill="#a5dceb" d="M 194.652344 245.746094 C 194.226562 245.746094 193.800781 245.582031 193.476562 245.257812 C 189.285156 241.066406 189.285156 234.242188 193.476562 230.050781 L 200.097656 223.433594 C 200.742188 222.785156 201.796875 222.785156 202.445312 223.433594 C 203.09375 224.082031 203.09375 225.132812 202.445312 225.78125 L 195.824219 232.398438 C 192.925781 235.296875 192.925781 240.011719 195.824219 242.910156 C 196.472656 243.558594 196.472656 244.609375 195.824219 245.257812 C 195.5 245.582031 195.078125 245.746094 194.652344 245.746094 " fill-opacity="1" fill-rule="nonzero"/><path fill="#a5dceb" d="M 213.777344 214.339844 C 213.351562 214.339844 212.925781 214.175781 212.601562 213.851562 C 211.953125 213.203125 211.953125 212.152344 212.601562 211.503906 L 222.21875 201.886719 C 222.867188 201.238281 223.921875 201.238281 224.566406 201.886719 C 225.214844 202.535156 225.214844 203.585938 224.566406 204.234375 L 214.949219 213.851562 C 214.625 214.175781 214.203125 214.339844 213.777344 214.339844 " fill-opacity="1" fill-rule="nonzero"/><path fill="#a5dceb" d="M 412.609375 45.425781 C 412.183594 45.425781 411.753906 45.265625 411.433594 44.941406 L 392.699219 26.203125 C 392.050781 25.558594 392.050781 24.507812 392.699219 23.859375 C 393.347656 23.210938 394.398438 23.210938 395.046875 23.859375 L 413.78125 42.589844 C 414.429688 43.242188 414.429688 44.292969 413.78125 44.941406 C 413.457031 45.265625 413.03125 45.425781 412.609375 45.425781 " fill-opacity="1" fill-rule="nonzero"/><g clip-path="url(#4929de96a4)"><path fill="#a5dceb" d="M 393.875 62.496094 L 393.882812 62.496094 Z M 421.972656 4.082031 C 418.875 4.082031 415.964844 5.289062 413.777344 7.476562 L 376.316406 44.9375 C 371.796875 49.453125 371.796875 56.804688 376.316406 61.324219 C 378.507812 63.511719 381.414062 64.71875 384.511719 64.71875 C 387.605469 64.71875 390.515625 63.511719 392.703125 61.324219 L 430.164062 23.863281 C 434.683594 19.34375 434.683594 11.992188 430.164062 7.476562 C 427.976562 5.289062 425.066406 4.082031 421.972656 4.082031 Z M 384.511719 68.039062 C 380.527344 68.039062 376.785156 66.488281 373.96875 63.671875 C 368.15625 57.859375 368.15625 48.402344 373.96875 42.589844 L 411.429688 5.125 C 414.246094 2.3125 417.988281 0.761719 421.972656 0.761719 C 425.953125 0.761719 429.699219 2.3125 432.511719 5.125 C 438.324219 10.941406 438.324219 20.398438 432.511719 26.210938 L 395.050781 63.671875 C 392.234375 66.488281 388.492188 68.039062 384.511719 68.039062 " fill-opacity="1" fill-rule="nonzero"/></g><path fill="#a5dceb" d="M 379.128906 61.265625 C 378.707031 61.265625 378.28125 61.101562 377.957031 60.777344 C 373.765625 56.585938 373.765625 49.765625 377.957031 45.570312 L 384.574219 38.953125 C 385.222656 38.308594 386.277344 38.308594 386.921875 38.953125 C 387.570312 39.601562 387.570312 40.65625 386.921875 41.304688 L 380.304688 47.917969 C 377.40625 50.816406 377.40625 55.53125 380.304688 58.429688 C 380.953125 59.078125 380.953125 60.128906 380.304688 60.777344 C 379.980469 61.101562 379.554688 61.265625 379.128906 61.265625 " fill-opacity="1" fill-rule="nonzero"/><path fill="#a5dceb" d="M 43.648438 45.425781 C 43.222656 45.425781 42.800781 45.265625 42.476562 44.941406 L 23.742188 26.203125 C 23.09375 25.558594 23.09375 24.507812 23.742188 23.859375 C 24.390625 23.210938 25.441406 23.210938 26.089844 23.859375 L 44.824219 42.589844 C 45.472656 43.242188 45.472656 44.292969 44.824219 44.941406 C 44.5 45.265625 44.074219 45.425781 43.648438 45.425781 " fill-opacity="1" fill-rule="nonzero"/><g clip-path="url(#2a9cd4aab2)"><path fill="#a5dceb" d="M 24.917969 62.496094 L 24.921875 62.496094 Z M 53.011719 4.082031 C 49.917969 4.082031 47.007812 5.289062 44.820312 7.476562 L 7.359375 44.9375 C 2.839844 49.453125 2.839844 56.804688 7.359375 61.324219 C 9.546875 63.511719 12.457031 64.71875 15.550781 64.71875 C 18.648438 64.71875 21.558594 63.511719 23.746094 61.324219 L 61.207031 23.863281 C 65.726562 19.34375 65.726562 11.992188 61.207031 7.476562 C 59.015625 5.289062 56.109375 4.082031 53.011719 4.082031 Z M 15.550781 68.039062 C 11.570312 68.039062 7.824219 66.488281 5.011719 63.671875 C -0.800781 57.859375 -0.800781 48.402344 5.011719 42.589844 L 42.472656 5.125 C 45.289062 2.3125 49.03125 0.761719 53.011719 0.761719 C 56.996094 0.761719 60.738281 2.3125 63.554688 5.125 C 69.367188 10.941406 69.367188 20.398438 63.554688 26.210938 L 26.09375 63.671875 C 23.277344 66.488281 19.535156 68.039062 15.550781 68.039062 " fill-opacity="1" fill-rule="nonzero"/></g></g></g></g><g clip-path="url(#c3a0d81afe)"><path fill="#2f748e" d="M 10.238281 708.988281 L 94.113281 660.5625 L 177.984375 708.988281 L 177.984375 805.839844 L 94.113281 854.261719 L 10.238281 805.839844 L 10.238281 708.988281 " fill-opacity="1" fill-rule="nonzero"/></g><path fill="#71d1ea" d="M 185.171875 708.988281 L 269.046875 660.5625 L 352.917969 708.988281 L 352.917969 805.839844 L 269.046875 854.261719 L 185.171875 805.839844 L 185.171875 708.988281 " fill-opacity="1" fill-rule="nonzero"/><path fill="#bfefde" d="M 97.703125 557.207031 L 181.578125 508.785156 L 265.453125 557.207031 L 265.453125 654.058594 L 181.578125 702.480469 L 97.703125 654.058594 L 97.703125 557.207031 " fill-opacity="1" fill-rule="nonzero"/><g clip-path="url(#eab4624f55)"><path fill="#2f748e" d="M 117.375 708.59375 L 33.5 757.019531 L 33.5 853.863281 L 117.375 902.292969 L 201.246094 853.863281 L 201.246094 757.019531 Z M 117.375 715.277344 L 195.453125 760.359375 L 195.453125 850.523438 L 117.375 895.601562 L 39.292969 850.523438 L 39.292969 760.359375 L 117.375 715.277344 " fill-opacity="1" fill-rule="nonzero"/></g><path fill="#2f748e" d="M 295.953125 660.5625 L 212.078125 708.988281 L 212.078125 805.839844 L 295.953125 854.261719 L 379.828125 805.839844 L 379.828125 708.988281 Z M 295.953125 667.253906 L 374.035156 712.332031 L 374.035156 802.492188 L 295.953125 847.574219 L 217.875 802.492188 L 217.875 712.332031 L 295.953125 667.253906 " fill-opacity="1" fill-rule="nonzero"/><g clip-path="url(#f89792d543)"><path fill="#2f748e" d="M 131.402344 468.5625 L 47.53125 516.988281 L 47.53125 613.839844 L 131.402344 662.261719 L 215.277344 613.839844 L 215.277344 516.988281 Z M 131.402344 475.253906 L 209.484375 520.332031 L 209.484375 610.496094 L 131.402344 655.578125 L 53.324219 610.496094 L 53.324219 520.332031 L 131.402344 475.253906 " fill-opacity="1" fill-rule="nonzero"/></g><path fill="#2f748e" d="M 300.296875 553.617188 L 281.003906 564.753906 L 281.003906 587.035156 L 300.296875 598.171875 L 319.59375 587.035156 L 319.59375 564.753906 Z M 300.296875 555.152344 L 318.261719 565.523438 L 318.261719 586.265625 L 300.296875 596.632812 L 282.335938 586.265625 L 282.335938 565.523438 L 300.296875 555.152344 " fill-opacity="1" fill-rule="nonzero"/><path fill="#2f748e" d="M 309.269531 605.3125 L 341.171875 586.898438 L 373.070312 605.3125 L 373.070312 642.148438 L 341.171875 660.5625 L 309.269531 642.148438 L 309.269531 605.3125 " fill-opacity="1" fill-rule="nonzero"/><path fill="#71d1ea" d="M 384.015625 679.804688 L 402.167969 669.324219 L 420.316406 679.804688 L 420.316406 700.761719 L 402.167969 711.242188 L 384.015625 700.761719 L 384.015625 679.804688 " fill-opacity="1" fill-rule="nonzero"/><path fill="#71d1ea" d="M 374.9375 570.65625 L 384.015625 565.414062 L 393.09375 570.65625 L 393.09375 581.132812 L 384.015625 586.375 L 374.9375 581.132812 L 374.9375 570.65625 " fill-opacity="1" fill-rule="nonzero"/><g clip-path="url(#3c5e3896a1)"><path fill="#2f748e" d="M 420.128906 659.242188 L 400.835938 670.382812 L 400.835938 692.664062 L 420.128906 703.804688 L 439.421875 692.664062 L 439.421875 670.382812 Z M 420.128906 660.78125 L 438.089844 671.15625 L 438.089844 691.894531 L 420.128906 702.265625 L 402.167969 691.894531 L 402.167969 671.15625 L 420.128906 660.78125 " fill-opacity="1" fill-rule="nonzero"/></g><g mask="url(#97fab29a73)"><g transform="matrix(1, 0, 0, 1, 1, 0.000000000000039746)"><g clip-path="url(#96f1c0ae4b)"><path fill="#a5dceb" d="M 324.246094 312.027344 L 297.753906 312.027344 C 296.835938 312.027344 296.09375 311.285156 296.09375 310.367188 C 296.09375 309.449219 296.835938 308.707031 297.753906 308.707031 L 324.246094 308.707031 C 325.164062 308.707031 325.90625 309.449219 325.90625 310.367188 C 325.90625 311.285156 325.164062 312.027344 324.246094 312.027344 " fill-opacity="1" fill-rule="nonzero"/><path fill="#a5dceb" d="M 311 272.292969 C 304.613281 272.292969 299.414062 277.488281 299.414062 283.878906 L 299.414062 336.855469 C 299.414062 343.246094 304.613281 348.445312 311 348.445312 C 317.390625 348.445312 322.585938 343.246094 322.585938 336.855469 L 322.585938 283.878906 C 322.585938 277.488281 317.390625 272.292969 311 272.292969 Z M 311 351.765625 C 302.78125 351.765625 296.09375 345.078125 296.09375 336.855469 L 296.09375 283.878906 C 296.09375 275.65625 302.78125 268.96875 311 268.96875 C 319.21875 268.96875 325.90625 275.65625 325.90625 283.878906 L 325.90625 336.855469 C 325.90625 345.078125 319.21875 351.765625 311 351.765625 " fill-opacity="1" fill-rule="nonzero"/><path fill="#a5dceb" d="M 319.320312 295.609375 C 318.402344 295.609375 317.660156 294.867188 317.660156 293.945312 L 317.660156 284.589844 C 317.660156 280.492188 314.324219 277.15625 310.226562 277.15625 C 309.308594 277.15625 308.566406 276.414062 308.566406 275.496094 C 308.566406 274.578125 309.308594 273.835938 310.226562 273.835938 C 316.15625 273.835938 320.980469 278.660156 320.980469 284.589844 L 320.980469 293.945312 C 320.980469 294.867188 320.234375 295.609375 319.320312 295.609375 " fill-opacity="1" fill-rule="nonzero"/><path fill="#a5dceb" d="M 318.910156 326.488281 C 317.992188 326.488281 317.25 325.742188 317.25 324.828125 L 317.25 311.226562 C 317.25 310.308594 317.992188 309.566406 318.910156 309.566406 C 319.828125 309.566406 320.570312 310.308594 320.570312 311.226562 L 320.570312 324.828125 C 320.570312 325.742188 319.828125 326.488281 318.910156 326.488281 " fill-opacity="1" fill-rule="nonzero"/><path fill="#a5dceb" d="M 126.523438 325.273438 C 125.605469 325.273438 124.863281 324.53125 124.863281 323.613281 L 124.863281 297.121094 C 124.863281 296.203125 125.605469 295.460938 126.523438 295.460938 C 127.4375 295.460938 128.183594 296.203125 128.183594 297.121094 L 128.183594 323.613281 C 128.183594 324.53125 127.4375 325.273438 126.523438 325.273438 " fill-opacity="1" fill-rule="nonzero"/><path fill="#a5dceb" d="M 100.03125 298.78125 C 93.644531 298.78125 88.445312 303.976562 88.445312 310.367188 C 88.445312 316.757812 93.644531 321.953125 100.03125 321.953125 L 153.011719 321.953125 C 159.398438 321.953125 164.597656 316.757812 164.597656 310.367188 C 164.597656 303.976562 159.398438 298.78125 153.011719 298.78125 Z M 153.011719 325.273438 L 100.03125 325.273438 C 91.8125 325.273438 85.125 318.585938 85.125 310.367188 C 85.125 302.148438 91.8125 295.460938 100.03125 295.460938 L 153.011719 295.460938 C 161.230469 295.460938 167.917969 302.148438 167.917969 310.367188 C 167.917969 318.585938 161.230469 325.273438 153.011719 325.273438 " fill-opacity="1" fill-rule="nonzero"/><path fill="#a5dceb" d="M 152.300781 320.34375 L 142.941406 320.34375 C 142.023438 320.34375 141.28125 319.601562 141.28125 318.683594 C 141.28125 317.769531 142.023438 317.023438 142.941406 317.023438 L 152.300781 317.023438 C 156.398438 317.023438 159.734375 313.691406 159.734375 309.59375 C 159.734375 308.675781 160.476562 307.929688 161.394531 307.929688 C 162.308594 307.929688 163.054688 308.675781 163.054688 309.59375 C 163.054688 315.519531 158.230469 320.34375 152.300781 320.34375 " fill-opacity="1" fill-rule="nonzero"/><path fill="#a5dceb" d="M 125.664062 319.9375 L 112.0625 319.9375 C 111.144531 319.9375 110.402344 319.195312 110.402344 318.277344 C 110.402344 317.359375 111.144531 316.617188 112.0625 316.617188 L 125.664062 316.617188 C 126.578125 316.617188 127.324219 317.359375 127.324219 318.277344 C 127.324219 319.195312 126.578125 319.9375 125.664062 319.9375 " fill-opacity="1" fill-rule="nonzero"/><path fill="#a5dceb" d="M 139.769531 127.546875 L 113.277344 127.546875 C 112.359375 127.546875 111.617188 126.804688 111.617188 125.886719 C 111.617188 124.972656 112.359375 124.226562 113.277344 124.226562 L 139.769531 124.226562 C 140.6875 124.226562 141.429688 124.972656 141.429688 125.886719 C 141.429688 126.804688 140.6875 127.546875 139.769531 127.546875 " fill-opacity="1" fill-rule="nonzero"/><path fill="#a5dceb" d="M 126.523438 87.8125 C 120.132812 87.8125 114.9375 93.011719 114.9375 99.398438 L 114.9375 152.378906 C 114.9375 158.765625 120.132812 163.964844 126.523438 163.964844 C 132.910156 163.964844 138.109375 158.765625 138.109375 152.378906 L 138.109375 99.398438 C 138.109375 93.011719 132.910156 87.8125 126.523438 87.8125 Z M 126.523438 167.285156 C 118.304688 167.285156 111.617188 160.597656 111.617188 152.378906 L 111.617188 99.398438 C 111.617188 91.179688 118.304688 84.492188 126.523438 84.492188 C 134.742188 84.492188 141.429688 91.179688 141.429688 99.398438 L 141.429688 152.378906 C 141.429688 160.597656 134.742188 167.285156 126.523438 167.285156 " fill-opacity="1" fill-rule="nonzero"/><path fill="#a5dceb" d="M 127.296875 162.417969 C 121.367188 162.417969 116.542969 157.59375 116.542969 151.667969 L 116.542969 142.308594 C 116.542969 141.390625 117.289062 140.648438 118.203125 140.648438 C 119.121094 140.648438 119.863281 141.390625 119.863281 142.308594 L 119.863281 151.667969 C 119.863281 155.765625 123.199219 159.097656 127.296875 159.097656 C 128.214844 159.097656 128.957031 159.84375 128.957031 160.757812 C 128.957031 161.675781 128.214844 162.417969 127.296875 162.417969 " fill-opacity="1" fill-rule="nonzero"/><path fill="#a5dceb" d="M 118.613281 126.691406 C 117.695312 126.691406 116.953125 125.945312 116.953125 125.03125 L 116.953125 111.429688 C 116.953125 110.511719 117.695312 109.769531 118.613281 109.769531 C 119.53125 109.769531 120.273438 110.511719 120.273438 111.429688 L 120.273438 125.03125 C 120.273438 125.945312 119.53125 126.691406 118.613281 126.691406 " fill-opacity="1" fill-rule="nonzero"/><path fill="#a5dceb" d="M 311 140.796875 C 310.085938 140.796875 309.339844 140.054688 309.339844 139.136719 L 309.339844 112.640625 C 309.339844 111.722656 310.085938 110.980469 311 110.980469 C 311.917969 110.980469 312.660156 111.722656 312.660156 112.640625 L 312.660156 139.136719 C 312.660156 140.054688 311.917969 140.796875 311 140.796875 " fill-opacity="1" fill-rule="nonzero"/><path fill="#a5dceb" d="M 284.511719 114.300781 C 278.125 114.300781 272.925781 119.5 272.925781 125.886719 C 272.925781 132.277344 278.125 137.472656 284.511719 137.472656 L 337.492188 137.472656 C 343.878906 137.472656 349.078125 132.277344 349.078125 125.886719 C 349.078125 119.5 343.878906 114.300781 337.492188 114.300781 Z M 337.492188 140.796875 L 284.511719 140.796875 C 276.292969 140.796875 269.605469 134.109375 269.605469 125.886719 C 269.605469 117.667969 276.292969 110.980469 284.511719 110.980469 L 337.492188 110.980469 C 345.710938 110.980469 352.398438 117.667969 352.398438 125.886719 C 352.398438 134.109375 345.710938 140.796875 337.492188 140.796875 " fill-opacity="1" fill-rule="nonzero"/><path fill="#a5dceb" d="M 276.128906 128.324219 C 275.214844 128.324219 274.46875 127.582031 274.46875 126.664062 C 274.46875 120.734375 279.292969 115.910156 285.222656 115.910156 L 294.582031 115.910156 C 295.5 115.910156 296.242188 116.65625 296.242188 117.570312 C 296.242188 118.488281 295.5 119.230469 294.582031 119.230469 L 285.222656 119.230469 C 281.125 119.230469 277.789062 122.566406 277.789062 126.664062 C 277.789062 127.582031 277.046875 128.324219 276.128906 128.324219 " fill-opacity="1" fill-rule="nonzero"/><path fill="#a5dceb" d="M 325.460938 119.640625 L 311.859375 119.640625 C 310.945312 119.640625 310.199219 118.898438 310.199219 117.980469 C 310.199219 117.0625 310.945312 116.320312 311.859375 116.320312 L 325.460938 116.320312 C 326.378906 116.320312 327.121094 117.0625 327.121094 117.980469 C 327.121094 118.898438 326.378906 119.640625 325.460938 119.640625 " fill-opacity="1" fill-rule="nonzero"/><path fill="#a5dceb" d="M 209.394531 413.636719 C 208.96875 413.636719 208.542969 413.472656 208.21875 413.148438 C 207.570312 412.496094 207.570312 411.449219 208.21875 410.800781 L 226.957031 392.066406 C 227.601562 391.417969 228.65625 391.417969 229.304688 392.066406 C 229.953125 392.714844 229.953125 393.765625 229.304688 394.414062 L 210.566406 413.148438 C 210.242188 413.472656 209.820312 413.636719 209.394531 413.636719 " fill-opacity="1" fill-rule="nonzero"/><g clip-path="url(#1f35c93d49)"><path fill="#a5dceb" d="M 200.03125 372.289062 C 196.9375 372.289062 194.027344 373.496094 191.839844 375.683594 C 189.648438 377.871094 188.445312 380.78125 188.445312 383.875 C 188.445312 386.96875 189.648438 389.878906 191.839844 392.066406 L 229.300781 429.527344 C 231.488281 431.71875 234.398438 432.921875 237.492188 432.921875 C 240.585938 432.921875 243.496094 431.71875 245.6875 429.527344 C 247.875 427.339844 249.078125 424.433594 249.078125 421.339844 C 249.078125 418.242188 247.875 415.332031 245.6875 413.144531 L 208.222656 375.683594 C 206.035156 373.496094 203.125 372.289062 200.03125 372.289062 Z M 237.492188 436.242188 C 233.511719 436.242188 229.765625 434.695312 226.949219 431.878906 L 189.488281 394.417969 C 186.675781 391.601562 185.125 387.855469 185.125 383.875 C 185.125 379.894531 186.675781 376.148438 189.488281 373.335938 C 192.304688 370.519531 196.050781 368.96875 200.03125 368.96875 C 204.011719 368.96875 207.757812 370.519531 210.574219 373.335938 L 248.035156 410.796875 C 250.847656 413.613281 252.398438 417.351562 252.398438 421.339844 C 252.398438 425.320312 250.847656 429.066406 248.035156 431.878906 C 245.21875 434.695312 241.472656 436.242188 237.492188 436.242188 " fill-opacity="1" fill-rule="nonzero"/></g><path fill="#a5dceb" d="M 213.03125 386.777344 C 212.609375 386.777344 212.183594 386.613281 211.859375 386.289062 L 205.242188 379.671875 C 203.835938 378.265625 201.96875 377.496094 199.984375 377.496094 C 198 377.496094 196.132812 378.265625 194.730469 379.671875 C 194.082031 380.320312 193.03125 380.320312 192.382812 379.671875 C 191.734375 379.023438 191.734375 377.972656 192.382812 377.324219 C 194.414062 375.292969 197.113281 374.175781 199.984375 374.175781 C 202.859375 374.175781 205.558594 375.292969 207.589844 377.324219 L 214.207031 383.941406 C 214.855469 384.589844 214.855469 385.640625 214.207031 386.289062 C 213.882812 386.613281 213.457031 386.777344 213.03125 386.777344 " fill-opacity="1" fill-rule="nonzero"/><path fill="#a5dceb" d="M 234.578125 408.898438 C 234.152344 408.898438 233.730469 408.738281 233.40625 408.414062 L 223.789062 398.792969 C 223.140625 398.148438 223.140625 397.09375 223.789062 396.449219 C 224.4375 395.796875 225.488281 395.796875 226.136719 396.449219 L 235.753906 406.0625 C 236.402344 406.710938 236.402344 407.765625 235.753906 408.414062 C 235.429688 408.738281 235.003906 408.898438 234.578125 408.898438 " fill-opacity="1" fill-rule="nonzero"/><path fill="#a5dceb" d="M 393.875 229.15625 C 393.449219 229.15625 393.023438 228.992188 392.699219 228.667969 C 392.050781 228.019531 392.050781 226.96875 392.699219 226.320312 L 411.433594 207.585938 C 412.082031 206.9375 413.132812 206.9375 413.78125 207.585938 C 414.429688 208.234375 414.429688 209.285156 413.78125 209.933594 L 395.046875 228.667969 C 394.722656 228.992188 394.300781 229.15625 393.875 229.15625 " fill-opacity="1" fill-rule="nonzero"/><path fill="#a5dceb" d="M 384.511719 187.808594 C 381.414062 187.808594 378.507812 189.015625 376.316406 191.203125 C 371.796875 195.722656 371.796875 203.074219 376.316406 207.589844 L 413.777344 245.050781 C 415.964844 247.238281 418.875 248.445312 421.972656 248.445312 C 425.066406 248.445312 427.976562 247.238281 430.164062 245.050781 C 432.351562 242.863281 433.558594 239.953125 433.558594 236.859375 C 433.558594 233.765625 432.351562 230.855469 430.164062 228.667969 L 392.703125 191.203125 C 390.515625 189.015625 387.605469 187.808594 384.511719 187.808594 Z M 421.972656 251.765625 C 417.988281 251.765625 414.246094 250.214844 411.429688 247.398438 L 373.96875 209.9375 C 368.15625 204.125 368.15625 194.667969 373.96875 188.855469 C 376.785156 186.039062 380.527344 184.488281 384.511719 184.488281 C 388.492188 184.488281 392.234375 186.039062 395.050781 188.855469 L 432.511719 226.316406 C 435.328125 229.132812 436.878906 232.878906 436.878906 236.859375 C 436.878906 240.839844 435.328125 244.582031 432.511719 247.398438 C 429.699219 250.214844 425.953125 251.765625 421.972656 251.765625 " fill-opacity="1" fill-rule="nonzero"/><path fill="#a5dceb" d="M 397.511719 202.296875 C 397.085938 202.296875 396.664062 202.132812 396.339844 201.808594 L 389.71875 195.191406 C 388.316406 193.789062 386.449219 193.015625 384.464844 193.015625 C 382.480469 193.015625 380.613281 193.789062 379.210938 195.191406 C 378.5625 195.839844 377.507812 195.839844 376.863281 195.191406 C 376.214844 194.542969 376.214844 193.492188 376.863281 192.84375 C 378.890625 190.8125 381.589844 189.695312 384.464844 189.695312 C 387.335938 189.695312 390.039062 190.8125 392.066406 192.84375 L 398.6875 199.460938 C 399.335938 200.109375 399.335938 201.160156 398.6875 201.808594 C 398.363281 202.132812 397.9375 202.296875 397.511719 202.296875 " fill-opacity="1" fill-rule="nonzero"/><path fill="#a5dceb" d="M 24.917969 229.15625 C 24.492188 229.15625 24.066406 228.992188 23.742188 228.667969 C 23.09375 228.019531 23.09375 226.96875 23.742188 226.320312 L 42.476562 207.585938 C 43.125 206.9375 44.175781 206.9375 44.824219 207.585938 C 45.472656 208.234375 45.472656 209.285156 44.824219 209.933594 L 26.089844 228.667969 C 25.765625 228.992188 25.339844 229.15625 24.917969 229.15625 " fill-opacity="1" fill-rule="nonzero"/><g clip-path="url(#bb91378dec)"><path fill="#a5dceb" d="M 15.550781 187.808594 C 12.457031 187.808594 9.546875 189.015625 7.359375 191.203125 C 2.839844 195.722656 2.839844 203.074219 7.359375 207.589844 L 44.820312 245.050781 C 47.007812 247.238281 49.917969 248.445312 53.011719 248.445312 C 56.109375 248.445312 59.015625 247.238281 61.207031 245.050781 C 63.394531 242.863281 64.601562 239.953125 64.601562 236.859375 C 64.601562 233.765625 63.394531 230.855469 61.207031 228.667969 L 23.746094 191.203125 C 21.558594 189.015625 18.648438 187.808594 15.550781 187.808594 Z M 53.011719 251.765625 C 49.03125 251.765625 45.289062 250.214844 42.472656 247.398438 L 5.011719 209.9375 C -0.800781 204.125 -0.800781 194.667969 5.011719 188.855469 C 7.824219 186.039062 11.570312 184.488281 15.550781 184.488281 C 19.535156 184.488281 23.277344 186.039062 26.09375 188.855469 L 63.554688 226.316406 C 66.371094 229.132812 67.921875 232.878906 67.921875 236.859375 C 67.921875 240.839844 66.371094 244.582031 63.554688 247.398438 C 60.738281 250.214844 56.996094 251.765625 53.011719 251.765625 " fill-opacity="1" fill-rule="nonzero"/></g><path fill="#a5dceb" d="M 50.101562 224.421875 C 49.675781 224.421875 49.25 224.257812 48.925781 223.933594 L 39.308594 214.316406 C 38.660156 213.667969 38.660156 212.617188 39.308594 211.96875 C 39.957031 211.320312 41.007812 211.320312 41.65625 211.96875 L 51.273438 221.585938 C 51.921875 222.234375 51.921875 223.285156 51.273438 223.933594 C 50.949219 224.257812 50.527344 224.421875 50.101562 224.421875 " fill-opacity="1" fill-rule="nonzero"/><path fill="#a5dceb" d="M 209.394531 44.675781 C 208.96875 44.675781 208.542969 44.515625 208.21875 44.191406 C 207.570312 43.542969 207.570312 42.492188 208.21875 41.839844 L 226.957031 23.109375 C 227.601562 22.460938 228.65625 22.460938 229.304688 23.109375 C 229.953125 23.757812 229.953125 24.808594 229.304688 25.453125 L 210.566406 44.191406 C 210.242188 44.515625 209.820312 44.675781 209.394531 44.675781 " fill-opacity="1" fill-rule="nonzero"/><path fill="#a5dceb" d="M 200.03125 3.332031 C 196.9375 3.332031 194.027344 4.539062 191.839844 6.726562 C 187.320312 11.242188 187.320312 18.59375 191.839844 23.113281 L 229.300781 60.574219 C 231.488281 62.761719 234.398438 63.96875 237.492188 63.96875 C 240.585938 63.96875 243.496094 62.761719 245.6875 60.574219 C 250.203125 56.054688 250.203125 48.703125 245.6875 44.1875 L 208.222656 6.726562 C 206.035156 4.539062 203.125 3.332031 200.03125 3.332031 Z M 237.492188 67.289062 C 233.511719 67.289062 229.765625 65.738281 226.949219 62.921875 L 189.488281 25.457031 C 183.675781 19.648438 183.675781 10.191406 189.488281 4.375 C 192.304688 1.5625 196.050781 0.0117188 200.03125 0.0117188 C 204.011719 0.0117188 207.757812 1.5625 210.574219 4.375 L 248.035156 41.839844 C 253.847656 47.652344 253.847656 57.109375 248.035156 62.921875 C 245.21875 65.738281 241.472656 67.289062 237.492188 67.289062 " fill-opacity="1" fill-rule="nonzero"/><path fill="#a5dceb" d="M 234.578125 39.941406 C 234.152344 39.941406 233.730469 39.777344 233.40625 39.457031 L 223.789062 29.839844 C 223.140625 29.1875 223.140625 28.136719 223.789062 27.492188 C 224.4375 26.84375 225.488281 26.84375 226.136719 27.492188 L 235.753906 37.105469 C 236.402344 37.753906 236.402344 38.808594 235.753906 39.457031 C 235.429688 39.777344 235.003906 39.941406 234.578125 39.941406 " fill-opacity="1" fill-rule="nonzero"/><path fill="#a5dceb" d="M 412.609375 413.636719 C 412.183594 413.636719 411.753906 413.472656 411.433594 413.148438 L 392.699219 394.414062 C 392.050781 393.765625 392.050781 392.714844 392.699219 392.066406 C 393.347656 391.417969 394.398438 391.417969 395.046875 392.066406 L 413.78125 410.800781 C 414.429688 411.449219 414.429688 412.496094 413.78125 413.148438 C 413.457031 413.472656 413.03125 413.636719 412.609375 413.636719 " fill-opacity="1" fill-rule="nonzero"/><g clip-path="url(#f73e364ea7)"><path fill="#a5dceb" d="M 421.972656 372.289062 C 418.875 372.289062 415.964844 373.496094 413.777344 375.683594 L 376.316406 413.144531 C 374.128906 415.332031 372.921875 418.242188 372.921875 421.339844 C 372.921875 424.433594 374.128906 427.339844 376.316406 429.527344 C 378.507812 431.71875 381.414062 432.921875 384.511719 432.921875 C 387.605469 432.921875 390.515625 431.71875 392.703125 429.527344 L 430.164062 392.066406 C 432.351562 389.878906 433.558594 386.96875 433.558594 383.875 C 433.558594 380.78125 432.351562 377.871094 430.164062 375.683594 C 427.976562 373.496094 425.066406 372.289062 421.972656 372.289062 Z M 384.511719 436.242188 C 380.527344 436.242188 376.785156 434.695312 373.96875 431.878906 C 371.152344 429.066406 369.601562 425.320312 369.601562 421.339844 C 369.601562 417.351562 371.152344 413.613281 373.96875 410.796875 L 411.429688 373.335938 C 414.246094 370.519531 417.988281 368.96875 421.972656 368.96875 C 425.953125 368.96875 429.699219 370.519531 432.511719 373.335938 C 435.328125 376.148438 436.878906 379.894531 436.878906 383.875 C 436.878906 387.855469 435.328125 391.601562 432.511719 394.417969 L 395.050781 431.878906 C 392.234375 434.695312 388.492188 436.242188 384.511719 436.242188 " fill-opacity="1" fill-rule="nonzero"/></g><path fill="#a5dceb" d="M 398.253906 398.066406 C 397.832031 398.066406 397.40625 397.90625 397.082031 397.582031 C 396.433594 396.933594 396.433594 395.878906 397.082031 395.234375 L 406.699219 385.617188 C 407.347656 384.96875 408.398438 384.96875 409.046875 385.617188 C 409.691406 386.265625 409.691406 387.316406 409.046875 387.964844 L 399.429688 397.582031 C 399.105469 397.90625 398.679688 398.066406 398.253906 398.066406 " fill-opacity="1" fill-rule="nonzero"/><path fill="#a5dceb" d="M 43.648438 413.636719 C 43.222656 413.636719 42.800781 413.472656 42.476562 413.148438 L 23.742188 394.414062 C 23.09375 393.765625 23.09375 392.714844 23.742188 392.066406 C 24.390625 391.417969 25.441406 391.417969 26.089844 392.066406 L 44.824219 410.800781 C 45.472656 411.449219 45.472656 412.496094 44.824219 413.148438 C 44.5 413.472656 44.074219 413.636719 43.648438 413.636719 " fill-opacity="1" fill-rule="nonzero"/><g clip-path="url(#d7d895418b)"><path fill="#a5dceb" d="M 53.011719 372.289062 C 49.917969 372.289062 47.007812 373.496094 44.820312 375.683594 L 7.359375 413.144531 C 5.171875 415.332031 3.964844 418.242188 3.964844 421.339844 C 3.964844 424.433594 5.167969 427.339844 7.359375 429.527344 C 9.546875 431.71875 12.457031 432.921875 15.550781 432.921875 C 18.648438 432.921875 21.558594 431.71875 23.746094 429.527344 L 61.207031 392.066406 C 63.394531 389.878906 64.601562 386.96875 64.601562 383.875 C 64.601562 380.78125 63.394531 377.871094 61.207031 375.683594 C 59.015625 373.496094 56.109375 372.289062 53.011719 372.289062 Z M 15.550781 436.242188 C 11.570312 436.242188 7.824219 434.695312 5.011719 431.878906 C 2.195312 429.066406 0.644531 425.320312 0.644531 421.339844 C 0.644531 417.351562 2.195312 413.613281 5.011719 410.796875 L 42.472656 373.335938 C 45.289062 370.519531 49.03125 368.96875 53.011719 368.96875 C 56.996094 368.96875 60.738281 370.519531 63.554688 373.335938 C 66.371094 376.148438 67.921875 379.894531 67.921875 383.875 C 67.921875 387.855469 66.371094 391.601562 63.554688 394.417969 L 26.09375 431.878906 C 23.277344 434.695312 19.535156 436.242188 15.550781 436.242188 " fill-opacity="1" fill-rule="nonzero"/></g><path fill="#a5dceb" d="M 29.296875 398.066406 C 28.871094 398.066406 28.449219 397.90625 28.121094 397.582031 C 27.472656 396.933594 27.472656 395.878906 28.121094 395.234375 L 37.742188 385.617188 C 38.390625 384.96875 39.441406 384.96875 40.089844 385.617188 C 40.738281 386.265625 40.738281 387.316406 40.089844 387.964844 L 30.472656 397.582031 C 30.148438 397.90625 29.722656 398.066406 29.296875 398.066406 " fill-opacity="1" fill-rule="nonzero"/><path fill="#a5dceb" d="M 228.128906 229.15625 C 227.703125 229.15625 227.28125 228.992188 226.957031 228.667969 L 208.21875 209.933594 C 207.570312 209.285156 207.570312 208.234375 208.21875 207.585938 C 208.867188 206.9375 209.921875 206.9375 210.566406 207.585938 L 229.304688 226.320312 C 229.953125 226.96875 229.953125 228.019531 229.304688 228.667969 C 228.980469 228.992188 228.554688 229.15625 228.128906 229.15625 " fill-opacity="1" fill-rule="nonzero"/><path fill="#a5dceb" d="M 237.492188 187.808594 C 234.398438 187.808594 231.488281 189.015625 229.300781 191.203125 L 191.839844 228.667969 C 189.648438 230.855469 188.445312 233.765625 188.445312 236.859375 C 188.445312 239.953125 189.648438 242.863281 191.839844 245.050781 C 194.027344 247.238281 196.9375 248.445312 200.03125 248.445312 C 203.125 248.445312 206.035156 247.238281 208.222656 245.050781 L 245.6875 207.589844 C 250.203125 203.074219 250.203125 195.722656 245.6875 191.203125 C 243.496094 189.015625 240.585938 187.808594 237.492188 187.808594 Z M 200.03125 251.765625 C 196.050781 251.765625 192.304688 250.214844 189.488281 247.398438 C 186.675781 244.582031 185.125 240.839844 185.125 236.859375 C 185.125 232.878906 186.675781 229.132812 189.488281 226.316406 L 226.949219 188.855469 C 229.765625 186.039062 233.511719 184.488281 237.492188 184.488281 C 241.472656 184.488281 245.21875 186.039062 248.035156 188.855469 C 253.847656 194.667969 253.847656 204.125 248.035156 209.9375 L 210.574219 247.398438 C 207.757812 250.214844 204.011719 251.765625 200.03125 251.765625 " fill-opacity="1" fill-rule="nonzero"/><path fill="#a5dceb" d="M 194.652344 244.992188 C 194.226562 244.992188 193.800781 244.832031 193.476562 244.507812 C 189.285156 240.3125 189.285156 233.492188 193.476562 229.300781 L 200.097656 222.683594 C 200.742188 222.035156 201.796875 222.035156 202.445312 222.683594 C 203.09375 223.332031 203.09375 224.382812 202.445312 225.03125 L 195.824219 231.648438 C 192.925781 234.546875 192.925781 239.261719 195.824219 242.160156 C 196.472656 242.808594 196.472656 243.859375 195.824219 244.507812 C 195.5 244.832031 195.078125 244.992188 194.652344 244.992188 " fill-opacity="1" fill-rule="nonzero"/><path fill="#a5dceb" d="M 213.777344 213.589844 C 213.351562 213.589844 212.925781 213.425781 212.601562 213.101562 C 211.953125 212.453125 211.953125 211.402344 212.601562 210.753906 L 222.21875 201.136719 C 222.867188 200.488281 223.921875 200.488281 224.566406 201.136719 C 225.214844 201.785156 225.214844 202.835938 224.566406 203.484375 L 214.949219 213.101562 C 214.625 213.425781 214.203125 213.589844 213.777344 213.589844 " fill-opacity="1" fill-rule="nonzero"/><path fill="#a5dceb" d="M 412.609375 44.675781 C 412.183594 44.675781 411.753906 44.515625 411.433594 44.191406 L 392.699219 25.453125 C 392.050781 24.808594 392.050781 23.757812 392.699219 23.109375 C 393.347656 22.460938 394.398438 22.460938 395.046875 23.109375 L 413.78125 41.839844 C 414.429688 42.492188 414.429688 43.542969 413.78125 44.191406 C 413.457031 44.515625 413.03125 44.675781 412.609375 44.675781 " fill-opacity="1" fill-rule="nonzero"/><path fill="#a5dceb" d="M 393.875 61.746094 L 393.882812 61.746094 Z M 421.972656 3.332031 C 418.875 3.332031 415.964844 4.539062 413.777344 6.726562 L 376.316406 44.1875 C 371.796875 48.703125 371.796875 56.054688 376.316406 60.574219 C 378.507812 62.761719 381.414062 63.96875 384.511719 63.96875 C 387.605469 63.96875 390.515625 62.761719 392.703125 60.574219 L 430.164062 23.113281 C 434.683594 18.59375 434.683594 11.242188 430.164062 6.726562 C 427.976562 4.539062 425.066406 3.332031 421.972656 3.332031 Z M 384.511719 67.289062 C 380.527344 67.289062 376.785156 65.738281 373.96875 62.921875 C 368.15625 57.109375 368.15625 47.652344 373.96875 41.839844 L 411.429688 4.375 C 414.246094 1.5625 417.988281 0.0117188 421.972656 0.0117188 C 425.953125 0.0117188 429.699219 1.5625 432.511719 4.375 C 438.324219 10.191406 438.324219 19.648438 432.511719 25.457031 L 395.050781 62.921875 C 392.234375 65.738281 388.492188 67.289062 384.511719 67.289062 " fill-opacity="1" fill-rule="nonzero"/><path fill="#a5dceb" d="M 379.128906 60.515625 C 378.707031 60.515625 378.28125 60.351562 377.957031 60.027344 C 373.765625 55.835938 373.765625 49.015625 377.957031 44.820312 L 384.574219 38.203125 C 385.222656 37.554688 386.277344 37.554688 386.921875 38.203125 C 387.570312 38.851562 387.570312 39.902344 386.921875 40.550781 L 380.304688 47.167969 C 377.40625 50.066406 377.40625 54.78125 380.304688 57.679688 C 380.953125 58.328125 380.953125 59.378906 380.304688 60.027344 C 379.980469 60.351562 379.554688 60.515625 379.128906 60.515625 " fill-opacity="1" fill-rule="nonzero"/><path fill="#a5dceb" d="M 43.648438 44.675781 C 43.222656 44.675781 42.800781 44.515625 42.476562 44.191406 L 23.742188 25.453125 C 23.09375 24.808594 23.09375 23.757812 23.742188 23.109375 C 24.390625 22.460938 25.441406 22.460938 26.089844 23.109375 L 44.824219 41.839844 C 45.472656 42.492188 45.472656 43.542969 44.824219 44.191406 C 44.5 44.515625 44.074219 44.675781 43.648438 44.675781 " fill-opacity="1" fill-rule="nonzero"/><g clip-path="url(#e123857021)"><path fill="#a5dceb" d="M 24.917969 61.746094 L 24.921875 61.746094 Z M 53.011719 3.332031 C 49.917969 3.332031 47.007812 4.539062 44.820312 6.726562 L 7.359375 44.1875 C 2.839844 48.703125 2.839844 56.054688 7.359375 60.574219 C 9.546875 62.761719 12.457031 63.96875 15.550781 63.96875 C 18.648438 63.96875 21.558594 62.761719 23.746094 60.574219 L 61.207031 23.113281 C 65.726562 18.59375 65.726562 11.242188 61.207031 6.726562 C 59.015625 4.539062 56.109375 3.332031 53.011719 3.332031 Z M 15.550781 67.289062 C 11.570312 67.289062 7.824219 65.738281 5.011719 62.921875 C -0.800781 57.109375 -0.800781 47.652344 5.011719 41.839844 L 42.472656 4.375 C 45.289062 1.5625 49.03125 0.0117188 53.011719 0.0117188 C 56.996094 0.0117188 60.738281 1.5625 63.554688 4.375 C 69.367188 10.191406 69.367188 19.648438 63.554688 25.457031 L 26.09375 62.921875 C 23.277344 65.738281 19.535156 67.289062 15.550781 67.289062 " fill-opacity="1" fill-rule="nonzero"/></g></g></g></g><g clip-path="url(#2e8d9989eb)"><path fill="#365e6d" d="M 262.683594 469.03125 L 209.773438 377.390625 L 262.683594 285.75 L 368.5 285.75 L 421.410156 377.390625 L 368.5 469.03125 L 262.683594 469.03125 " fill-opacity="1" fill-rule="nonzero"/></g><path fill="#c2e4ed" d="M 262.683594 277.902344 L 209.773438 186.257812 L 262.683594 94.621094 L 368.5 94.621094 L 421.410156 186.257812 L 368.5 277.902344 L 262.683594 277.902344 " fill-opacity="1" fill-rule="nonzero"/><path fill="#8ad7bb" d="M 96.847656 373.46875 L 43.941406 281.828125 L 96.847656 190.1875 L 202.667969 190.1875 L 255.574219 281.828125 L 202.667969 373.46875 L 96.847656 373.46875 " fill-opacity="1" fill-rule="nonzero"/><g clip-path="url(#7e7b7722c5)"><path fill="#365e6d" d="M 262.253906 351.976562 L 315.160156 443.617188 L 420.976562 443.617188 L 473.886719 351.976562 L 420.976562 260.335938 L 315.160156 260.335938 Z M 269.558594 351.976562 L 318.8125 266.664062 L 417.324219 266.664062 L 466.578125 351.976562 L 417.324219 437.289062 L 318.8125 437.289062 L 269.558594 351.976562 " fill-opacity="1" fill-rule="nonzero"/></g><path fill="#365e6d" d="M 209.773438 156.859375 L 262.683594 248.5 L 368.5 248.5 L 421.410156 156.859375 L 368.5 65.21875 L 262.683594 65.21875 Z M 217.082031 156.859375 L 266.339844 71.546875 L 364.84375 71.546875 L 414.101562 156.859375 L 364.84375 242.167969 L 266.339844 242.167969 L 217.082031 156.859375 " fill-opacity="1" fill-rule="nonzero"/><path fill="#365e6d" d="M -0.00390625 336.644531 L 52.902344 428.285156 L 158.722656 428.285156 L 211.628906 336.644531 L 158.722656 245.007812 L 52.902344 245.007812 Z M 7.304688 336.644531 L 56.558594 251.335938 L 155.070312 251.335938 L 204.324219 336.644531 L 155.070312 421.957031 L 56.558594 421.957031 L 7.304688 336.644531 " fill-opacity="1" fill-rule="nonzero"/><path fill="#365e6d" d="M 92.921875 152.113281 L 105.09375 173.191406 L 129.4375 173.191406 L 141.605469 152.113281 L 129.4375 131.03125 L 105.09375 131.03125 Z M 94.601562 152.113281 L 105.933594 132.484375 L 128.59375 132.484375 L 139.925781 152.113281 L 128.59375 171.738281 L 105.933594 171.738281 L 94.601562 152.113281 " fill-opacity="1" fill-rule="nonzero"/><path fill="#365e6d" d="M 149.40625 142.308594 L 129.285156 107.453125 L 149.40625 72.601562 L 189.652344 72.601562 L 209.773438 107.453125 L 189.652344 142.308594 L 149.40625 142.308594 " fill-opacity="1" fill-rule="nonzero"/><path fill="#c2e4ed" d="M 230.796875 60.640625 L 219.34375 40.8125 L 230.796875 20.980469 L 253.695312 20.980469 L 265.144531 40.8125 L 253.695312 60.640625 L 230.796875 60.640625 " fill-opacity="1" fill-rule="nonzero"/><path fill="#c2e4ed" d="M 111.539062 70.5625 L 105.816406 60.640625 L 111.539062 50.726562 L 122.988281 50.726562 L 128.714844 60.640625 L 122.988281 70.5625 L 111.539062 70.5625 " fill-opacity="1" fill-rule="nonzero"/><g clip-path="url(#df55f71611)"><path fill="#365e6d" d="M 208.332031 21.1875 L 220.503906 42.265625 L 244.847656 42.265625 L 257.019531 21.1875 L 244.847656 0.109375 L 220.503906 0.109375 Z M 210.011719 21.1875 L 221.347656 1.5625 L 244.007812 1.5625 L 255.335938 21.1875 L 244.007812 40.8125 L 221.347656 40.8125 L 210.011719 21.1875 " fill-opacity="1" fill-rule="nonzero"/></g><g mask="url(#25b1ce41b9)"><g transform="matrix(1, 0, 0, 1, 475, 674)"><g clip-path="url(#40d8121aef)"><path fill="#a5dceb" d="M 139.632812 128.71875 L 113.136719 128.71875 C 112.21875 128.71875 111.476562 127.976562 111.476562 127.058594 C 111.476562 126.144531 112.21875 125.398438 113.136719 125.398438 L 139.632812 125.398438 C 140.550781 125.398438 141.292969 126.144531 141.292969 127.058594 C 141.292969 127.976562 140.550781 128.71875 139.632812 128.71875 " fill-opacity="1" fill-rule="nonzero"/><g clip-path="url(#2fdd9e60db)"><path fill="#a5dceb" d="M 126.386719 88.984375 C 119.996094 88.984375 114.796875 94.183594 114.796875 100.570312 L 114.796875 153.550781 C 114.796875 159.9375 119.996094 165.136719 126.386719 165.136719 C 132.773438 165.136719 137.972656 159.9375 137.972656 153.550781 L 137.972656 100.570312 C 137.972656 94.183594 132.773438 88.984375 126.386719 88.984375 Z M 126.386719 168.457031 C 118.164062 168.457031 111.476562 161.769531 111.476562 153.550781 L 111.476562 100.570312 C 111.476562 92.351562 118.164062 85.664062 126.386719 85.664062 C 134.605469 85.664062 141.292969 92.351562 141.292969 100.570312 L 141.292969 153.550781 C 141.292969 161.769531 134.605469 168.457031 126.386719 168.457031 " fill-opacity="1" fill-rule="nonzero"/></g><path fill="#a5dceb" d="M 118.476562 127.859375 C 117.558594 127.859375 116.816406 127.117188 116.816406 126.199219 L 116.816406 112.597656 C 116.816406 111.683594 117.558594 110.9375 118.476562 110.9375 C 119.394531 110.9375 120.136719 111.683594 120.136719 112.597656 L 120.136719 126.199219 C 120.136719 127.117188 119.394531 127.859375 118.476562 127.859375 " fill-opacity="1" fill-rule="nonzero"/><g clip-path="url(#c0e667a521)"><path fill="#a5dceb" d="M 310.863281 141.964844 C 309.945312 141.964844 309.203125 141.222656 309.203125 140.304688 L 309.203125 113.8125 C 309.203125 112.894531 309.945312 112.152344 310.863281 112.152344 C 311.78125 112.152344 312.523438 112.894531 312.523438 113.8125 L 312.523438 140.304688 C 312.523438 141.222656 311.78125 141.964844 310.863281 141.964844 " fill-opacity="1" fill-rule="nonzero"/></g><g clip-path="url(#4c2ea4a7f7)"><path fill="#a5dceb" d="M 284.375 115.472656 C 277.984375 115.472656 272.789062 120.671875 272.789062 127.058594 C 272.789062 133.449219 277.984375 138.644531 284.375 138.644531 L 337.355469 138.644531 C 343.742188 138.644531 348.941406 133.449219 348.941406 127.058594 C 348.941406 120.671875 343.742188 115.472656 337.355469 115.472656 Z M 337.355469 141.964844 L 284.375 141.964844 C 276.152344 141.964844 269.46875 135.277344 269.46875 127.058594 C 269.46875 118.839844 276.152344 112.152344 284.375 112.152344 L 337.355469 112.152344 C 345.574219 112.152344 352.261719 118.839844 352.261719 127.058594 C 352.261719 135.277344 345.574219 141.964844 337.355469 141.964844 " fill-opacity="1" fill-rule="nonzero"/></g><path fill="#a5dceb" d="M 275.992188 129.496094 C 275.078125 129.496094 274.332031 128.75 274.332031 127.835938 C 274.332031 121.90625 279.15625 117.082031 285.085938 117.082031 L 294.445312 117.082031 C 295.363281 117.082031 296.105469 117.824219 296.105469 118.742188 C 296.105469 119.660156 295.363281 120.402344 294.445312 120.402344 L 285.085938 120.402344 C 280.988281 120.402344 277.652344 123.734375 277.652344 127.835938 C 277.652344 128.75 276.910156 129.496094 275.992188 129.496094 " fill-opacity="1" fill-rule="nonzero"/><path fill="#a5dceb" d="M 325.324219 120.808594 L 311.722656 120.808594 C 310.804688 120.808594 310.0625 120.066406 310.0625 119.148438 C 310.0625 118.234375 310.804688 117.488281 311.722656 117.488281 L 325.324219 117.488281 C 326.242188 117.488281 326.984375 118.234375 326.984375 119.148438 C 326.984375 120.066406 326.242188 120.808594 325.324219 120.808594 " fill-opacity="1" fill-rule="nonzero"/><path fill="#a5dceb" d="M 209.257812 45.847656 C 208.832031 45.847656 208.40625 45.683594 208.082031 45.359375 C 207.433594 44.710938 207.433594 43.660156 208.082031 43.011719 L 226.816406 24.277344 C 227.464844 23.628906 228.515625 23.628906 229.164062 24.277344 C 229.8125 24.929688 229.8125 25.980469 229.164062 26.625 L 210.429688 45.359375 C 210.105469 45.683594 209.683594 45.847656 209.257812 45.847656 " fill-opacity="1" fill-rule="nonzero"/><g clip-path="url(#6cde71d583)"><path fill="#a5dceb" d="M 199.894531 4.503906 C 196.796875 4.503906 193.890625 5.710938 191.699219 7.898438 C 187.183594 12.414062 187.183594 19.761719 191.699219 24.28125 L 229.164062 61.742188 C 231.351562 63.929688 234.261719 65.136719 237.355469 65.136719 C 240.449219 65.136719 243.359375 63.929688 245.546875 61.742188 C 250.066406 57.226562 250.066406 49.875 245.546875 45.359375 L 208.085938 7.898438 C 205.898438 5.710938 202.988281 4.503906 199.894531 4.503906 Z M 237.355469 68.457031 C 233.375 68.457031 229.628906 66.90625 226.8125 64.089844 L 189.351562 26.628906 C 183.539062 20.816406 183.539062 11.363281 189.351562 5.546875 C 192.167969 2.730469 195.910156 1.179688 199.894531 1.179688 C 203.875 1.179688 207.617188 2.730469 210.433594 5.546875 L 247.894531 43.007812 C 253.707031 48.820312 253.707031 58.28125 247.894531 64.089844 C 245.078125 66.90625 241.335938 68.457031 237.355469 68.457031 " fill-opacity="1" fill-rule="nonzero"/></g><path fill="#a5dceb" d="M 234.441406 41.113281 C 234.015625 41.113281 233.589844 40.949219 233.265625 40.625 L 223.648438 31.007812 C 223 30.359375 223 29.308594 223.648438 28.660156 C 224.296875 28.011719 225.351562 28.011719 225.996094 28.660156 L 235.613281 38.277344 C 236.261719 38.925781 236.261719 39.976562 235.613281 40.625 C 235.292969 40.949219 234.867188 41.113281 234.441406 41.113281 " fill-opacity="1" fill-rule="nonzero"/><path fill="#a5dceb" d="M 412.472656 45.847656 C 412.046875 45.847656 411.617188 45.683594 411.296875 45.359375 L 392.5625 26.625 C 391.914062 25.980469 391.914062 24.929688 392.5625 24.277344 C 393.210938 23.628906 394.261719 23.628906 394.910156 24.277344 L 413.644531 43.011719 C 414.292969 43.660156 414.292969 44.710938 413.644531 45.359375 C 413.320312 45.683594 412.894531 45.847656 412.472656 45.847656 " fill-opacity="1" fill-rule="nonzero"/><g clip-path="url(#ed005efbc8)"><path fill="#a5dceb" d="M 393.738281 62.917969 L 393.742188 62.917969 Z M 421.835938 4.503906 C 418.738281 4.503906 415.828125 5.710938 413.640625 7.898438 L 376.179688 45.359375 C 371.660156 49.875 371.660156 57.226562 376.179688 61.742188 C 378.367188 63.929688 381.277344 65.136719 384.371094 65.136719 C 387.46875 65.136719 390.378906 63.929688 392.566406 61.742188 L 430.027344 24.28125 C 434.546875 19.761719 434.546875 12.414062 430.027344 7.898438 C 427.835938 5.710938 424.929688 4.503906 421.835938 4.503906 Z M 384.371094 68.457031 C 380.390625 68.457031 376.648438 66.90625 373.832031 64.089844 C 368.019531 58.28125 368.019531 48.820312 373.832031 43.007812 L 411.292969 5.546875 C 414.109375 2.730469 417.851562 1.179688 421.835938 1.179688 C 425.816406 1.179688 429.5625 2.730469 432.375 5.546875 C 438.1875 11.363281 438.1875 20.816406 432.375 26.628906 L 394.914062 64.089844 C 392.097656 66.90625 388.351562 68.457031 384.371094 68.457031 " fill-opacity="1" fill-rule="nonzero"/></g><path fill="#a5dceb" d="M 378.992188 61.6875 C 378.570312 61.6875 378.144531 61.523438 377.820312 61.199219 C 373.625 57.007812 373.625 50.183594 377.820312 45.992188 L 384.4375 39.375 C 385.085938 38.726562 386.136719 38.726562 386.785156 39.375 C 387.433594 40.023438 387.433594 41.074219 386.785156 41.722656 L 380.167969 48.339844 C 377.269531 51.238281 377.269531 55.953125 380.167969 58.851562 C 380.816406 59.5 380.816406 60.550781 380.167969 61.199219 C 379.84375 61.523438 379.417969 61.6875 378.992188 61.6875 " fill-opacity="1" fill-rule="nonzero"/><path fill="#a5dceb" d="M 43.511719 45.847656 C 43.085938 45.847656 42.664062 45.683594 42.339844 45.359375 L 23.605469 26.625 C 22.957031 25.980469 22.957031 24.929688 23.605469 24.277344 C 24.253906 23.628906 25.304688 23.628906 25.953125 24.277344 L 44.6875 43.011719 C 45.335938 43.660156 45.335938 44.710938 44.6875 45.359375 C 44.363281 45.683594 43.9375 45.847656 43.511719 45.847656 " fill-opacity="1" fill-rule="nonzero"/><g clip-path="url(#d4ad667426)"><path fill="#a5dceb" d="M 24.78125 62.917969 L 24.785156 62.917969 Z M 52.875 4.503906 C 49.78125 4.503906 46.871094 5.710938 44.683594 7.898438 L 7.222656 45.359375 C 2.703125 49.875 2.703125 57.226562 7.222656 61.742188 C 9.410156 63.929688 12.320312 65.136719 15.414062 65.136719 C 18.507812 65.136719 21.417969 63.929688 23.609375 61.742188 L 61.070312 24.28125 C 65.585938 19.761719 65.585938 12.414062 61.070312 7.898438 C 58.878906 5.710938 55.972656 4.503906 52.875 4.503906 Z M 15.414062 68.457031 C 11.433594 68.457031 7.6875 66.90625 4.875 64.089844 C -0.9375 58.28125 -0.9375 48.820312 4.875 43.007812 L 42.335938 5.546875 C 45.152344 2.730469 48.894531 1.179688 52.875 1.179688 C 56.859375 1.179688 60.601562 2.730469 63.417969 5.546875 C 69.230469 11.363281 69.230469 20.816406 63.417969 26.628906 L 25.953125 64.089844 C 23.140625 66.90625 19.398438 68.457031 15.414062 68.457031 " fill-opacity="1" fill-rule="nonzero"/></g></g></g></g><g clip-path="url(#f10658c9f2)"><g clip-path="url(#7f6ee81415)"><path fill="#ffffff" d="M 623.890625 563.917969 L 943.066406 563.917969 L 943.066406 883.09375 L 623.890625 883.09375 Z M 623.890625 563.917969 " fill-opacity="1" fill-rule="nonzero"/></g></g></svg>